<svg xmlns="http://www.w3.org/2000/svg"><symbol id="mecha-stilts" viewBox="0 0 256 256"><path d="M164.2 157.8h13.5v13.24h-13.5zm-42.9 0h13.5v13.24h-13.5zm-25.3 0h21v13.24H96zm42.9 0h21v13.24h-21zM128 70.2c-24.6 0-45.2 14.9-46.2 42h92.5c-1.1-27.1-21.7-42-46.3-42z"/><path d="M128 0L17.1 64v128L128 256l110.9-64V64zm66.4 155.7a2 2 0 0 1-2.1 2.1h-10.5V171h10.5a2.1 2.1 0 1 1 0 4.2H63.7a2.1 2.1 0 0 1 0-4.2h10.5v-13.2H63.7a2 2 0 0 1-2.1-2.1v-41.4a2 2 0 0 1 2.1-2.1h13.8C78.6 82.4 100.9 66 128 66s49.4 16.4 50.5 46.2h13.9a2 2 0 0 1 2.1 2.1z"/><path d="M78.4 157.8h13.5v13.24H78.4zm-12.6-4.2h124.4v-37.2H65.8zm61.2-14.3h51.3a2.1 2.1 0 0 1 0 4.2h-51.4a2.1 2.1 0 1 1 0-4.2z"/></symbol><symbol id="space-bubbles" viewBox="0 0 256 256"><path d="M97.3 149.9H83.4l-18.5 21.8 3 4.2 35.5-18.7-6.1-7.3zm-25.6-15.2h115v10.93h-115z"/><path d="M128 0L17.1 64v128L128 256l110.9-64V64zm67.3 173l-4.8 6.9a2.2 2.2 0 0 1-2.7.6l-10.1-5.3H78.2l-10.1 5.3a2.3 2.3 0 0 1-2.7-.6l-4.9-6.9a2.2 2.2 0 0 1 .2-2.5l17.4-20.6h-8.5a2 2 0 0 1-2.1-2.1v-15.2a2 2 0 0 1 2.1-2.1h12.1a58.7 58.7 0 0 1-2.3-16 49.7 49.7 0 0 1 99.4 0 51.6 51.6 0 0 1-2.3 16h12.2a2 2 0 0 1 2.1 2.1v15.1a2 2 0 0 1-2.1 2.1H178l17.2 20.6a2.2 2.2 0 0 1 .1 2.6z"/><path d="M86.4 171.1H115l-8.7-10.5-19.9 10.5zm85.7-40.6a50.8 50.8 0 0 0 2.5-16 45.5 45.5 0 0 0-91 0c0 5.5.4 11.1 2.5 16zm-69.3 19.4l17.6 21.2h15.2l17.6-21.2h-50.4zm55.9 0l-6.3 7.3 35.7 18.7 3-4-18.5-22h-13.9zM141 171.1h28.6l-19.9-10.5-8.7 10.5z"/></symbol><symbol id="super-domes" viewBox="0 0 256 256"><path d="M125.9 127.8V85.3l-30.3 42.5h30.3zm-2.1-46.7c-26.9 1.7-49.4 21.2-55.9 46.7h22.5zm6.3 66.7h9.5v23.33h-9.5zm0-66.9v46.9h58a62.5 62.5 0 0 0-58-46.9zm-60.8 66.9h56.5v23.33H69.3zm74.5 0h42.9v23.33h-42.9zM57.4 132h141.3v11.56H57.4z"/><path d="M128 0L17.1 64v128L128 256l110.9-64V64zm90.6 147.8h-27.7v25.4a2 2 0 0 1-2.1 2.1H67.2a2 2 0 0 1-2.1-2.1v-25.4H37.4a2.1 2.1 0 0 1 0-4.2h15.8v-13.7a2 2 0 0 1 2.1-2.1h8.2a66.7 66.7 0 0 1 64.3-51.1c.2-.2.4-.2.8 0 31.1.2 57 22.1 63.9 51.1h8.2a2 2 0 0 1 2.1 2.1v13.7h15.8a2.1 2.1 0 1 1 0 4.2z"/></symbol></svg>